{"title":"The.Big.Adventure.S01E03.PDTV.x264-NoGRP.mp4","uid":11355771,"size":660950061,"categoryP":"video","categoryS":"tv_shows","magnet":"?xt=urn:btih:b38cbfa456eb92c9dd4c741bf87a4ec23d642067&amp;dn=The.Big.Adventure.S01E03.PDTV.x264-NoGRP.mp4&amp;tr=udp%3A%2F%2Ftracker.openbittorrent.com%3A80&amp;tr=udp%3A%2F%2Fopen.demonii.com%3A1337&amp;tr=udp%3A%2F%2Ftracker.coppersurfer.tk%3A6969&amp;tr=udp%3A%2F%2Fexodus.desync.com%3A6969","seeders":2,"leechers":0,"uploader":"SweatyBalls6969","files":1,"time":1414938950,"description":"The.Big.Adventure.S01E03.PDTV.x264-NoGRP\n\nFormat                                   : MPEG-4\nFormat profile                           : Base Media / Version 2\nCodec ID                                 : mp42\nFile size                                : 630 MiB\nDuration                                 : 1h 3mn\nOverall bit rate mode                    : Variable\nOverall bit rate                         : 1 377 Kbps\n\n\nVideo\nID                                       : 1\nFormat                                   : AVC\nFormat/Info                              : Advanced Video Codec\nFormat profile                           : &lt;a class=&quot;__cf_email__&quot; href=&quot;/cdn-cgi/l/email-protection&quot; data-cfemail=&quot;db93b2bcb39b97e8f5ea&quot;&gt;[email&amp;#160;protected]&lt;/a&gt;&lt;script cf-hash='f9e31' type=&quot;text/javascript&quot;&gt;\n/* &lt;![CDATA[ */!function(){try{var t=&quot;currentScript&quot;in document?document.currentScript:function(){for(var t=document.getElementsByTagName(&quot;script&quot;),e=t.length;e--;)if(t[e].getAttribute(&quot;cf-hash&quot;))return t[e]}();if(t&amp;&amp;t.previousSibling){var e,r,n,i,c=t.previousSibling,a=c.getAttribute(&quot;data-cfemail&quot;);if(a){for(e=&quot;&quot;,r=parseInt(a.substr(0,2),16),n=2;a.length-n;n+=2)i=parseInt(a.substr(n,2),16)^r,e+=String.fromCharCode(i);e=document.createTextNode(e),c.parentNode.replaceChild(e,c)}}}catch(u){}}();/* ]]&gt; */&lt;/script&gt;\nFormat settings, CABAC                   : Yes\nFormat settings, ReFrames                : 4 frames\nCodec ID/Info                            : Advanced Video Coding\nDuration                                 : 1h 3mn\nBit rate                                 : 1 213 Kbps\nWidth                                    : 720 pixels\nHeight                                   : 400 pixels\nDisplay aspect ratio                     : 16:9\nFrame rate mode                          : Variable\nFrame rate                               : 25.000 fps\nMinimum frame rate                       : 16.193 fps\nMaximum frame rate                       : 54.811 fps\nColor space                              : YUV\nChroma subsampling                       : 4:2:0\nBit depth                                : 8 bits\nScan type                                : Progressive\nBits/(Pixel*Frame)                       : 0.168\nStream size                              : 555 MiB (88%)\nWriting library                          : x264 core 130 r2273 b3065e6\n\n\nAudio\nID                                       : 2\nFormat                                   : AAC\nFormat/Info                              : Advanced Audio Codec\nFormat profile                           : LC\nCodec ID                                 : 40\nDuration                                 : 1h 3mn\nBit rate mode                            : Variable\nBit rate                                 : 160 Kbps\nMaximum bit rate                         : 258 Kbps\nChannel(s)                               : 2 channels\nChannel positions                        : Front: L R\nSampling rate                            : 48.0 KHz\nCompression mode                         : Lossy\nStream size                              : 73.2 MiB (12%)\nLanguage                                 : English\n\n\nS01E04 -- Episode 4 (Nov/02/2014)\n\nTwelve Australians battle it out in extreme conditions to win a life-changing prize. They find their skills, smarts, speed and stamina being tested to their limits","torrent":{"xt":"urn:btih:b38cbfa456eb92c9dd4c741bf87a4ec23d642067","amp;dn":"The.Big.Adventure.S01E03.PDTV.x264-NoGRP.mp4","amp;tr":["udp%3A%2F%2Ftracker.openbittorrent.com%3A80","udp%3A%2F%2Fopen.demonii.com%3A1337","udp%3A%2F%2Ftracker.coppersurfer.tk%3A6969","udp%3A%2F%2Fexodus.desync.com%3A6969"],"infoHash":"b38cbfa456eb92c9dd4c741bf87a4ec23d642067","infoHashBuffer":{"type":"Buffer","data":[179,140,191,164,86,235,146,201,221,76,116,27,248,122,78,194,61,100,32,103]},"announce":[],"urlList":[]}}